<svg width="313" height="60" viewBox="0 0 313 60" fill="none" xmlns="http://www.w3.org/2000/svg">
<path d="M29.8605 38.4772C25.1095 38.4772 21.242 34.6125 21.242 29.8587C21.242 25.1048 25.1066 21.2402 29.8605 21.2402C32.5194 21.2402 34.9021 22.4517 36.4848 24.3509L40.1077 21.3409C37.6618 18.4028 33.9755 16.5266 29.8634 16.5266C22.5139 16.5266 16.5342 22.5063 16.5342 29.8558C16.5342 37.2053 22.5139 43.185 29.8634 43.185C33.9784 43.185 37.6618 41.3117 40.1077 38.3707L36.4848 35.3607C34.9021 37.2599 32.5223 38.4714 29.8605 38.4714V38.4772Z" fill="#ACACAC"/>
<path d="M42.997 40.7816C39.8604 44.5513 35.1354 46.9541 29.8578 46.9541C20.4335 46.9541 12.7646 39.2852 12.7646 29.8609C12.7646 20.4367 20.4335 12.7678 29.8578 12.7678C35.1325 12.7678 39.8575 15.1706 42.997 18.9403L46.6171 15.9303C42.6143 11.1218 36.5886 8.05713 29.8578 8.05713C17.835 8.05713 8.05396 17.8382 8.05396 29.8609C8.05396 41.8837 17.835 51.6648 29.8578 51.6648C36.5886 51.6648 42.6143 48.6001 46.6171 43.7916L42.997 40.7816Z" fill="#D92A2B"/>
<path d="M29.8612 55.0088C15.9939 55.0088 4.71356 43.7285 4.71356 29.8612C4.71356 15.9939 15.9939 4.71068 29.8612 4.71068C37.625 4.71068 44.5745 8.24729 49.1931 13.7925L52.8247 10.7739C52.2434 10.0746 51.6276 9.39835 50.9744 8.748C45.3342 3.10496 37.8351 0 29.8612 0C21.8873 0 14.3853 3.10496 8.74512 8.74512C3.10496 14.3853 0 21.8844 0 29.8612C0 37.838 3.10496 45.3371 8.74512 50.9744C14.3853 56.6145 21.8844 59.7195 29.8583 59.7195C37.8322 59.7195 45.3342 56.6145 50.9715 50.9744C51.6218 50.324 52.2376 49.6478 52.8218 48.9485L49.1902 45.9299C44.5745 51.4751 37.6222 55.0117 29.8583 55.0117L29.8612 55.0088Z" fill="#3854CC"/>
<path d="M73.1343 24.3051C73.1343 28.5841 70.7401 30.7366 67.0308 30.7366C63.3216 30.7366 60.9878 28.587 60.9878 24.4288V16.1758H63.4827V24.3281C63.4827 26.9899 64.8409 28.423 67.0711 28.423C69.3013 28.423 70.6394 27.0705 70.6394 24.4288V16.1758H73.1343V24.3051Z" fill="#3854CC"/>
<path d="M86.4744 16.1758H88.929V30.5121H86.8399L79.0127 20.3138V30.5121H76.5581V16.1758H78.8688L86.4715 26.0892V16.1758H86.4744Z" fill="#3854CC"/>
<path d="M95.2107 16.1758V30.5121H92.7158V16.1758H95.2107Z" fill="#3854CC"/>
<path d="M109.079 16.1758H111.775L105.876 30.6129H103.686L97.7871 16.1758H100.544L104.823 27.1942L109.082 16.1758H109.079Z" fill="#3854CC"/>
<path d="M124.731 18.429H116.702V22.1555H123.819V24.4087H116.702V28.259H124.834V30.5121H114.21V16.1758H124.734V18.429H124.731Z" fill="#3854CC"/>
<path d="M136.895 30.5121L133.407 25.5137H130.285V30.5121H127.79V16.1758H134.115C137.378 16.1758 139.387 17.9167 139.387 20.7224C139.387 23.0994 137.988 24.5324 136 25.0849L139.833 30.5121H136.892H136.895ZM133.914 18.4693H130.285V23.2835H133.934C135.718 23.2835 136.855 22.3425 136.855 20.8663C136.855 19.2894 135.761 18.4693 133.914 18.4693Z" fill="#3854CC"/>
<path d="M147.92 22.1955C150.922 22.9322 152.481 24.0171 152.481 26.4141C152.481 29.1162 150.392 30.7162 147.411 30.7162C145.241 30.7162 143.192 29.9594 141.492 28.4227L142.991 26.6213C144.349 27.8098 145.707 28.486 147.471 28.486C149.011 28.486 149.986 27.7695 149.986 26.6645C149.986 25.6199 149.42 25.0674 146.784 24.4516C143.762 23.7149 142.059 22.8142 142.059 20.1495C142.059 17.6517 144.087 15.9712 146.905 15.9712C148.974 15.9712 150.614 16.6071 152.055 17.7726L150.717 19.6776C149.44 18.7165 148.162 18.2042 146.864 18.2042C145.405 18.2042 144.553 18.9611 144.553 19.9251C144.553 21.0502 145.201 21.5423 147.92 22.1984V22.1955Z" fill="#3854CC"/>
<path d="M158.056 16.1758V30.5121H155.561V16.1758H158.056Z" fill="#3854CC"/>
<path d="M167.138 30.5121H161.846V16.1758H167.138C171.598 16.1758 174.68 19.2692 174.68 23.3238C174.68 27.3784 171.598 30.5121 167.138 30.5121ZM167.138 18.4693H164.341V28.2187H167.138C170.119 28.2187 172.064 26.1899 172.064 23.3641C172.064 20.5383 170.116 18.4693 167.138 18.4693Z" fill="#3854CC"/>
<path d="M190.312 30.5115H187.676L186.238 27.0498H179.527L178.068 30.5115H175.513L181.757 16.0745H184.068L190.312 30.5115ZM182.871 19.0845L180.436 24.8196H185.323L182.868 19.0845H182.871Z" fill="#3854CC"/>
<path d="M198.035 30.5121H192.743V16.1758H198.035C202.495 16.1758 205.577 19.2692 205.577 23.3238C205.577 27.3784 202.495 30.5121 198.035 30.5121ZM198.035 18.4693H195.238V28.2187H198.035C201.016 28.2187 202.962 26.1899 202.962 23.3641C202.962 20.5383 201.016 18.4693 198.035 18.4693Z" fill="#3854CC"/>
<path d="M221.265 30.7562C217.13 30.7562 214.048 27.4987 214.048 23.3635C214.048 19.2284 217.07 15.9277 221.369 15.9277C223.985 15.9277 225.567 16.8486 226.926 18.1608L225.323 20.0255C224.186 18.9608 222.972 18.2442 221.349 18.2442C218.632 18.2442 216.664 20.4974 216.664 23.3232C216.664 26.1491 218.63 28.4426 221.349 28.4426C223.093 28.4426 224.206 27.726 225.424 26.5779L227.026 28.2152C225.547 29.772 223.924 30.7533 221.268 30.7533L221.265 30.7562Z" fill="#3854CC"/>
<path d="M240.163 18.429H232.135V22.1555H239.251V24.4087H232.135V28.259H240.267V30.5121H229.643V16.1758H240.166V18.429H240.163Z" fill="#3854CC"/>
<path d="M253.137 16.1758H255.591V30.5121H253.502L245.675 20.3138V30.5121H243.22V16.1758H245.531L253.134 26.0892V16.1758H253.137Z" fill="#3854CC"/>
<path d="M265.238 30.5121H262.723V18.5095H258.223V16.1758H269.739V18.5095H265.238V30.5121Z" fill="#3854CC"/>
<path d="M281.477 30.5121L277.989 25.5137H274.867V30.5121H272.372V16.1758H278.697C281.961 16.1758 283.969 17.9167 283.969 20.7224C283.969 23.0994 282.571 24.5324 280.582 25.0849L284.415 30.5121H281.474H281.477ZM278.496 18.4693H274.867V23.2835H278.516C280.3 23.2835 281.437 22.3425 281.437 20.8663C281.437 19.2894 280.343 18.4693 278.496 18.4693Z" fill="#3854CC"/>
<path d="M300.617 30.5115H297.981L296.542 27.0498H289.832L288.373 30.5115H285.817L292.062 16.0745H294.373L300.617 30.5115ZM293.175 19.0845L290.741 24.8196H295.627L293.173 19.0845H293.175Z" fill="#3854CC"/>
<path d="M303.045 16.1758H305.54V28.2187H313.002V30.5121H303.045V16.1758Z" fill="#3854CC"/>
<path d="M63.4254 43.6145H61.1233V37.3816H63.4254C65.3649 37.3816 66.7059 38.7254 66.7059 40.4894C66.7059 42.2534 65.3649 43.6145 63.4254 43.6145ZM63.4254 38.3773H62.2082V42.616H63.4254C64.7232 42.616 65.5664 41.7354 65.5664 40.5067C65.5664 39.278 64.7203 38.3773 63.4254 38.3773Z" fill="#ACACAC"/>
<path d="M75.5539 38.3594H72.0634V39.9796H75.1568V40.9579H72.0634V42.6327H75.6V43.6111H70.9785V37.3782H75.5539V38.3566V38.3594Z" fill="#ACACAC"/>
<path d="M79.8481 37.3816H80.933V42.6189H84.179V43.6174H79.851V37.3845L79.8481 37.3816Z" fill="#ACACAC"/>
<path d="M96.1782 41.6117H94.9523V43.6145H93.8674V37.3816H96.3019C97.7378 37.3816 98.6472 38.2017 98.6472 39.4736C98.6472 40.8808 97.5364 41.6117 96.1782 41.6117ZM96.2127 38.3801H94.9523V40.6247H96.2127C97.0328 40.6247 97.545 40.17 97.545 39.5024C97.545 38.7629 97.0242 38.3801 96.2127 38.3801Z" fill="#ACACAC"/>
<path d="M108.011 43.6149H106.865L106.238 42.1099H103.32L102.684 43.6149H101.573L104.29 37.3359H105.294L108.011 43.6149ZM104.776 38.6453L103.717 41.1402H105.841L104.773 38.6453H104.776Z" fill="#ACACAC"/>
<path d="M115.986 43.6145L114.47 41.4419H113.111V43.6145H112.027V37.3816H114.778C116.196 37.3816 117.071 38.1384 117.071 39.3585C117.071 40.3916 116.464 41.016 115.598 41.2549L117.264 43.6145H115.986ZM114.691 38.3773H113.114V40.4693H114.703C115.48 40.4693 115.972 40.0607 115.972 39.419C115.972 38.7341 115.497 38.3773 114.694 38.3773H114.691Z" fill="#ACACAC"/>
<path d="M127.268 43.6149H126.123L125.496 42.1099H122.578L121.942 43.6149H120.831L123.548 37.3359H124.552L127.268 43.6149ZM124.034 38.6453L122.975 41.1402H125.099L124.031 38.6453H124.034Z" fill="#ACACAC"/>
<path d="M133.836 43.7208C131.905 43.7208 130.636 42.3309 130.636 40.5065C130.636 38.6821 131.96 37.2749 133.819 37.2749C134.895 37.2749 135.557 37.5771 136.19 38.1209L135.502 38.9497C135.025 38.5411 134.558 38.2821 133.773 38.2821C132.636 38.2821 131.773 39.2806 131.773 40.4892C131.773 41.7813 132.61 42.7251 133.871 42.7251C134.452 42.7251 134.981 42.5381 135.361 42.2532V41.0878H133.781V40.1353H136.409V42.7539C135.802 43.2805 134.927 43.7237 133.833 43.7237L133.836 43.7208Z" fill="#ACACAC"/>
<path d="M145.966 40.9153C145.966 42.7772 144.927 43.7124 143.312 43.7124C141.698 43.7124 140.685 42.7772 140.685 40.97V37.3816H141.77V40.9268C141.77 42.0836 142.36 42.7081 143.33 42.7081C144.299 42.7081 144.881 42.1211 144.881 40.9729V37.3845H145.966V40.9211V40.9153Z" fill="#ACACAC"/>
<path d="M156.103 43.6149H154.958L154.33 42.1099H151.412L150.777 43.6149H149.666L152.382 37.3359H153.387L156.103 43.6149ZM152.866 38.6453L151.807 41.1402H153.93L152.863 38.6453H152.866Z" fill="#ACACAC"/>
<path d="M162.059 43.6145H160.965V41.157L158.514 37.3816H159.791L161.521 40.1412L163.268 37.3816H164.511L162.059 41.1311V43.6145Z" fill="#ACACAC"/>
</svg>
